<?xml version="1.0"?><svg width="816" height="1056" xmlns="http://www.w3.org/2000/svg">
 <title>Blue Flower</title>
 <metadata id="metadata3234">image/svg+xml</metadata>
 <g>
  <title>Layer 1</title>
  <g externalResourcesRequired="false" id="layer1">
   <g externalResourcesRequired="false" id="svg_1">
    <g externalResourcesRequired="false" id="svg_3">
     <path d="m616.911926,620.72406c49.753357,197.573425 -124.322266,253.573669 -252.968414,314.536316c31.700592,-122.642029 8.134064,-274.469849 252.968414,-314.536316z" id="path38" stroke-miterlimit="4" stroke-width="5.352934" stroke="#000000" fill="#007f00"/>
     <path d="m53.15863,646.332581c-4.00119,199.381348 188.997086,229.711548 309.436493,290.502136c-32.043732,-124.661438 -110.971817,-288.396057 -309.436493,-290.502136z" id="path3789" stroke-miterlimit="4" stroke-width="5.337831" stroke="#000000" fill="#007f00"/>
     <path id="path32" d="m366.383942,940.020264c-102.978302,-295.854797 89.741272,-299.639038 45.243622,-511.958954c102.211792,142.533966 -74.662262,188.315643 -45.243622,511.958954z" stroke-miterlimit="4" stroke-width="2.851429" stroke="#000000" fill="#007f00"/>
    </g>
   </g>
   <g externalResourcesRequired="false" id="svg_4">
    <path id="path3806" d="m418.232239,435.237671c-4.948395,59.791412 -42.055176,117.89978 -94.971588,147.139832c-49.642395,26.666504 -120.002548,7.235168 -142.940048,-43.801636c-17.759872,-45.789856 -1.083908,-99.204041 31.337097,-134.613281c24.922775,-27.894897 61.807632,-39.040588 95.670395,-54.308624c-52.542877,6.674286 -108.278839,-3.799347 -149.380905,-36.10199c-25.146835,-18.311188 -49.97937,-45.781372 -48.931999,-78.403809c2.521942,-48.162109 53.322823,-87.48671 102.657784,-79.884415c61.166748,8.834106 108.196472,52.730804 146.565979,97.23436c-13.708496,-12.327042 -26.455994,-31.902084 -32.165192,-49.086365c-17.238739,-71.517227 23.303955,-151.591114 92.594177,-181.144213c14.57608,-7.00165 32.429688,-4.02199 45.10907,6.26557c33.388458,24.998131 55.900482,65.229649 53.904755,106.4967c-5.163818,44.972595 -28.437653,83.878464 -53.242279,121.502487c20.915802,-37.202835 48.735321,-69.001572 91.619476,-86.507385c54.714111,-22.551468 127.393005,-22.158936 169.766479,23.727386c27.050537,26.131729 21.464661,72.853912 -4.937988,97.456116c-29.676697,27.175781 -70.344482,37.065735 -108.054321,47.263641c-32.427979,10.299438 -72.38562,0.613037 -105.153809,0.243927c30.086853,1.466766 68.600891,1.872894 91.309692,17.447968c35.078491,24.277313 70.531982,58.820038 64.840149,104.410248c-6.957947,50.838898 -51.521667,106.730194 -109.202454,97.586456c-60.110657,-10.069275 -109.336975,-71.681396 -136.39447,-122.922974z" stroke-miterlimit="4" stroke-width="4.137208" stroke="#000000" fill="#ffff00"/>
    <path d="m453.594299,251.318329c54.72821,26.608887 65.066223,110.112091 19.689026,150.207214c-40.464996,40.191986 -116.998138,31.37085 -144.519714,-19.51123c-28.502075,-43.710144 -10.541534,-109.63559 37.591309,-131.458374c26.521729,-13.859344 59.82605,-13.082382 87.23938,0.76239z" id="path3800" stroke-miterlimit="4" stroke-width="3.898249" stroke="#000000" fill="#7f0000"/>
   </g>
  </g>
  <ellipse fill="#3f007f" stroke="#000000" stroke-width="5" cx="338" cy="364" id="svg_2"/>
 </g>
</svg>